REM MD5 451700b2bd5ddd664b13bee71530e92c
FILE "Lunar - Silver Star Story (Japan, Asia) (Disc 1).bin" BINARY
  TRACK 01 MODE2/2352
    INDEX 01 00:00:00
  TRACK 02 AUDIO
    INDEX 00 51:30:68
    INDEX 01 51:32:68
  TRACK 03 AUDIO
    INDEX 00 53:59:40
    INDEX 01 54:01:40
REM LEADOUT 54:45:10
